<svg xmlns="http://www.w3.org/2000/svg" viewBox="0 0 24 24" fill="currentColor">
  <path d="M12 .5a12 12 0 0 0-3.79 23.39c.6.11.82-.26.82-.58v-2.04c-3.34.73-4.04-1.42-4.04-1.42-.55-1.38-1.34-1.75-1.34-1.75-1.1-.75.08-.74.08-.74 1.2.08 1.84 1.24 1.84 1.24 1.08 1.84 2.82 1.31 3.5 1 .1-.78.42-1.31.76-1.62-2.67-.3-5.47-1.34-5.47-5.95 0-1.31.47-2.37 1.24-3.2-.13-.31-.54-1.55.12-3.23 0 0 1-.33 3.3 1.22a11.4 11.4 0 0 1 6 0c2.29-1.55 3.29-1.22 3.29-1.22.66 1.68.25 2.92.12 3.23.77.83 1.24 1.89 1.24 3.2 0 4.62-2.8 5.65-5.49 5.94.43.37.81 1.11.81 2.25v3.34c0 .32.21.69.82.58A12 12 0 0 0 12 .5z"/>
</svg>
